<svg width="39" height="44" viewBox="0 0 39 44" fill="none" xmlns="http://www.w3.org/2000/svg">
<path d="M6.52481 7.47945C6.60488 7.3783 6.70108 7.29823 6.80748 7.24416C6.91388 7.1901 7.02823 7.16317 7.14348 7.16506H11.3471C11.4642 7.164 11.5803 7.19124 11.6887 7.2452C11.797 7.29916 11.8956 7.37877 11.9786 7.47945C12.0656 7.57433 12.135 7.6907 12.1823 7.82083C12.2295 7.95096 12.2536 8.09187 12.2528 8.2342V18.0182C12.2463 18.3481 12.1893 18.6737 12.0846 18.9781C11.9975 19.2756 11.8616 19.5483 11.6853 19.7796C11.6081 19.863 11.5455 19.9646 11.5012 20.0782C11.4569 20.1918 11.4319 20.3151 11.4276 20.4408C11.4297 20.5715 11.4537 20.7003 11.498 20.8193C11.5423 20.9383 11.606 21.0451 11.6853 21.1331C11.8652 21.3489 12.0019 21.6126 12.0846 21.9034C12.1892 22.2078 12.2462 22.5334 12.2528 22.8633V33.0252C12.2536 33.1676 12.2295 33.3085 12.1823 33.4386C12.135 33.5687 12.0656 33.6851 11.9786 33.78C11.8956 33.8807 11.797 33.9603 11.6887 34.0143C11.5803 34.0682 11.4642 34.0955 11.3471 34.0944H9.5679C9.33113 34.0851 9.10039 34.1864 8.92273 34.3776C8.84061 34.4627 8.77492 34.5689 8.73037 34.6885C8.68582 34.8082 8.6635 34.9385 8.66502 35.0699C8.66616 35.2013 8.64368 35.3313 8.59916 35.4509C8.55463 35.5706 8.48915 35.6768 8.40732 35.7622C8.23115 35.952 8.00255 36.0532 7.76763 36.0454H7.14348C7.02681 36.0464 6.91131 36.017 6.80464 35.9594C6.69798 35.9017 6.60259 35.817 6.52481 35.7109C6.44229 35.6096 6.37703 35.4894 6.33279 35.3572C6.28856 35.225 6.26624 35.0834 6.2671 34.9406V8.2342C6.26556 8.0936 6.28763 7.9541 6.33195 7.8243C6.37627 7.69449 6.4419 7.57713 6.52481 7.47945ZM8.83317 18.7395C8.94466 18.9502 9.07808 19.0539 9.23252 19.0539C9.32539 19.0537 9.41671 19.0248 9.49791 18.9698C9.57911 18.9148 9.64753 18.8356 9.69675 18.7395C9.82336 18.5072 9.88726 18.2323 9.87952 17.9535V11.1529C9.88631 10.8759 9.82244 10.6033 9.69675 10.3725C9.64717 10.2761 9.57827 10.1968 9.49656 10.142C9.41485 10.0872 9.32303 10.0587 9.22978 10.0592C9.07534 10.0592 8.94192 10.1707 8.83043 10.3937C8.71558 10.6258 8.65725 10.893 8.66228 11.164V17.9647C8.65603 18.2385 8.71542 18.5085 8.83317 18.7417V18.7395ZM9.69675 22.2792C9.64602 22.186 9.57694 22.1098 9.49584 22.0576C9.41474 22.0054 9.32421 21.9788 9.23252 21.9804C9.07838 21.9804 8.94527 22.0852 8.83317 22.2948C8.71726 22.5206 8.65875 22.7832 8.66502 23.0495V30.101C8.65987 30.3724 8.7182 30.64 8.83317 30.8725C8.94466 31.0954 9.07808 31.2136 9.23252 31.2337C9.32539 31.2335 9.41671 31.2046 9.49791 31.1496C9.57911 31.0946 9.64753 31.0154 9.69675 30.9193C9.82336 30.687 9.88726 30.4121 9.87952 30.1333V23.054C9.88874 22.7791 9.82461 22.508 9.69675 22.2814V22.2792ZM15.963 8.3914C16.1537 8.54608 16.3793 8.62405 16.6081 8.61437H22.591C22.8232 8.61554 23.0455 8.72856 23.2097 8.92881C23.3738 9.12906 23.4665 9.40032 23.4674 9.68352V10.4071C23.4707 10.5528 23.4495 10.6977 23.4052 10.8331C23.3609 10.9684 23.2944 11.0913 23.2097 11.1941C23.1296 11.2953 23.0334 11.3754 22.927 11.4294C22.8206 11.4835 22.7063 11.5104 22.591 11.5085H16.6081C16.4888 11.5049 16.3701 11.5308 16.2593 11.5848C16.1485 11.6388 16.0478 11.7197 15.9633 11.8226C15.8789 11.9255 15.8125 12.0483 15.7681 12.1834C15.7238 12.3186 15.7024 12.4633 15.7053 12.6089V16.6681C15.6983 16.9521 15.7763 17.2294 15.9246 17.4485C15.9913 17.5489 16.076 17.6295 16.1721 17.684C16.2682 17.7384 16.3733 17.7654 16.4793 17.7629C16.5811 17.7627 16.6816 17.7344 16.7731 17.6799C16.8646 17.6254 16.9447 17.5463 17.0075 17.4485C17.1558 17.2294 17.2337 16.9521 17.2268 16.6681V15.6926C17.2252 15.5431 17.2487 15.3947 17.2958 15.2566C17.343 15.1186 17.4128 14.9938 17.501 14.8899C17.5821 14.7844 17.68 14.7003 17.7888 14.6428C17.8975 14.5853 18.0148 14.5556 18.1333 14.5554H18.6999C18.822 14.5547 18.943 14.5835 19.0559 14.6402C19.1689 14.6968 19.2714 14.7802 19.3578 14.8855C19.4441 14.9909 19.5125 15.116 19.5589 15.2538C19.6054 15.3916 19.629 15.5392 19.6284 15.6881V16.6636C19.6256 16.8091 19.6471 16.9538 19.6915 17.0889C19.7359 17.224 19.8023 17.3467 19.8867 17.4496C19.9712 17.5525 20.0718 17.6334 20.1826 17.6874C20.2934 17.7414 20.412 17.7675 20.5312 17.764H22.5947C22.7114 17.763 22.8269 17.7923 22.9335 17.85C23.0402 17.9077 23.1356 17.9924 23.2134 18.0984C23.2959 18.1997 23.3612 18.32 23.4054 18.4522C23.4496 18.5844 23.4719 18.726 23.4711 18.8688V19.6213C23.4704 19.9047 23.3778 20.1763 23.2136 20.3768C23.0495 20.5773 22.827 20.6904 22.5947 20.6916H20.5276C20.4083 20.6881 20.2897 20.7141 20.1789 20.7682C20.0681 20.8222 19.9675 20.9031 19.8831 21.006C19.7987 21.1089 19.7323 21.2316 19.6879 21.3667C19.6434 21.5018 19.622 21.6464 19.6247 21.792V34.9473C19.6248 35.0917 19.6005 35.2347 19.5534 35.3672C19.5062 35.4998 19.4372 35.6191 19.3506 35.7176C19.2656 35.8255 19.1633 35.9109 19.0501 35.9684C18.9369 36.026 18.8152 36.0544 18.6926 36.0521H16.9654C16.8677 36.049 16.772 36.017 16.6866 35.9587C16.6013 35.9005 16.5289 35.8177 16.4756 35.7176C16.3372 35.4968 16.2644 35.2252 16.2691 34.9473V34.2259C16.2615 33.9553 16.3056 33.6862 16.3979 33.44C16.4838 33.2296 16.5956 33.1245 16.7333 33.1245C16.871 33.1245 16.9871 33.0197 17.0815 32.8101C17.1822 32.5668 17.2309 32.2965 17.2231 32.0241V21.7931C17.2249 21.6468 17.2014 21.5017 17.1542 21.3673C17.1069 21.2328 17.037 21.112 16.949 21.0127C16.8658 20.912 16.7671 20.8324 16.6585 20.7785C16.55 20.7245 16.4338 20.6973 16.3166 20.6983H14.2093C14.09 20.7023 13.9713 20.6764 13.8605 20.6224C13.7497 20.5683 13.6492 20.4872 13.565 20.3839C13.482 20.2861 13.4163 20.1685 13.372 20.0385C13.3277 19.9085 13.3057 19.7688 13.3073 19.628V12.6067C13.3117 12.3434 13.2856 12.0806 13.2297 11.8263C13.1785 11.6167 13.109 11.5119 13.0231 11.5119C12.9546 11.5119 12.8943 11.4071 12.8404 11.1975C12.7836 10.9411 12.7574 10.676 12.7627 10.4104V9.68129C12.7584 9.42643 12.7846 9.17218 12.8404 8.92653C12.8915 8.71694 12.9519 8.61214 13.0231 8.61214C13.109 8.61214 13.1785 8.53856 13.2297 8.38917C13.2832 8.22972 13.3096 8.05866 13.3073 7.88637C13.309 7.77976 13.3337 7.67556 13.3789 7.58434C13.4242 7.49311 13.4884 7.41808 13.565 7.36685C13.7589 7.22356 13.9828 7.15264 14.2093 7.16283H14.8289C15.046 7.15685 15.2598 7.22855 15.4439 7.36908C15.5206 7.42031 15.5848 7.49534 15.63 7.58657C15.6753 7.67779 15.7 7.78199 15.7016 7.8886C15.7053 8.07701 15.7912 8.24981 15.963 8.3914ZM14.0549 22.171C14.1384 22.0684 14.2383 21.9877 14.3482 21.9336C14.4582 21.8796 14.576 21.8534 14.6945 21.8566H15.0299C15.1494 21.8525 15.2682 21.8782 15.3792 21.9323C15.4902 21.9864 15.5909 22.0676 15.6751 22.171C15.758 22.2687 15.8236 22.3861 15.868 22.5159C15.9123 22.6457 15.9343 22.7852 15.9328 22.9258V34.9439C15.9402 35.2327 15.8572 35.5141 15.7007 35.731C15.6266 35.833 15.5351 35.914 15.4327 35.9683C15.3302 36.0226 15.2193 36.0489 15.1076 36.0454H13.6939C13.6026 36.0464 13.5127 36.0178 13.4334 35.9626C13.3541 35.9073 13.2882 35.8274 13.2425 35.731C13.1251 35.4941 13.067 35.2205 13.0752 34.9439V34.2259C13.068 33.9569 13.1075 33.689 13.1913 33.44C13.268 33.2293 13.3494 33.1245 13.4362 33.1245C13.5391 33.1245 13.625 33.0197 13.6939 32.8101C13.7696 32.5567 13.8053 32.2881 13.799 32.0185V22.9258C13.7972 22.7853 13.819 22.6459 13.863 22.5161C13.907 22.3863 13.9723 22.2689 14.0549 22.171ZM22.4878 22.171C22.5707 22.2687 22.6363 22.3861 22.6806 22.5159C22.725 22.6457 22.747 22.7852 22.7455 22.9258V32.0185C22.7383 32.2876 22.7779 32.5554 22.8615 32.8045C22.9392 33.0141 23.0288 33.1189 23.1357 33.1189C23.2216 33.1189 23.2993 33.2237 23.3678 33.4344C23.4418 33.6882 23.4755 33.9568 23.4674 34.2259V34.9495C23.4713 35.2228 23.4076 35.4913 23.2847 35.7199C23.1628 35.9428 23.0336 36.0543 22.8972 36.0543H21.4305C21.3196 36.0539 21.2101 36.0238 21.1098 35.966C21.0095 35.9082 20.9209 35.8241 20.8502 35.7199C20.6907 35.5108 20.603 35.2351 20.6053 34.9495V22.9258C20.6045 22.7834 20.6285 22.6425 20.6758 22.5124C20.723 22.3823 20.7925 22.2659 20.8794 22.171C20.9667 22.0683 21.0697 21.9876 21.1827 21.9336C21.2956 21.8797 21.4161 21.8535 21.5374 21.8566H21.8719C21.9866 21.8553 22.1004 21.8825 22.2063 21.9366C22.3122 21.9906 22.408 22.0704 22.4878 22.171Z" fill="white"/>
<path d="M26.145 35.9463C26.0666 35.9988 25.9794 36.0285 25.89 36.0332C25.8566 36.0306 25.8243 36.0171 25.7965 35.9941C25.7687 35.9712 25.7464 35.9397 25.7319 35.9028C25.687 35.8109 25.6642 35.7054 25.6661 35.5985V35.3253C25.6635 35.2194 25.6775 35.1138 25.7073 35.0143C25.7338 34.9307 25.7648 34.8894 25.7987 34.8894C25.8222 34.8893 25.8452 34.881 25.8651 34.8657C25.885 34.8503 25.9009 34.8284 25.9111 34.8025C25.9398 34.7335 25.9536 34.6568 25.9513 34.5795V28.2761C25.9536 28.1706 25.94 28.0656 25.9111 27.9662C25.8836 27.8825 25.8462 27.8413 25.7987 27.8413C25.7511 27.8413 25.7338 27.8 25.7073 27.7164C25.6776 27.6172 25.6636 27.5121 25.6661 27.4065V27.1077C25.6669 26.9959 25.7036 26.889 25.7684 26.8099C25.8332 26.7309 25.9209 26.6861 26.0125 26.6852H26.5526C26.6443 26.6858 26.7321 26.7305 26.7969 26.8096C26.8618 26.8887 26.8984 26.9958 26.8989 27.1077V33.2483C26.9021 33.3821 26.9283 33.5135 26.9757 33.6341C27.0213 33.7639 27.0812 33.8854 27.1539 33.9953L27.6428 34.5661C27.7254 34.6638 27.822 34.742 27.9279 34.7969C28.0302 34.8551 28.1413 34.8866 28.2541 34.8894H32.116C32.2073 34.8878 32.2953 34.9303 32.3609 35.0076C32.3944 35.0468 32.4207 35.0942 32.4382 35.1466C32.4557 35.199 32.4639 35.2554 32.4624 35.3119V35.5985C32.4627 35.6548 32.454 35.7107 32.4365 35.763C32.4191 35.8152 32.3934 35.8627 32.3609 35.9028C32.33 35.9444 32.2922 35.9775 32.2499 36C32.2077 36.0225 32.1621 36.0338 32.116 36.0332H27.969C27.8586 36.0292 27.7497 35.9997 27.6483 35.9463C27.542 35.8975 27.4436 35.8262 27.3577 35.7356L27.1237 35.4736C27.0905 35.4315 27.0506 35.398 27.0065 35.3752C26.9623 35.3524 26.9149 35.3407 26.8669 35.3409C26.8175 35.3406 26.7686 35.3524 26.723 35.3758C26.6775 35.3992 26.6363 35.4336 26.6019 35.4769L26.3981 35.7256C26.324 35.8152 26.2385 35.8897 26.145 35.9463ZM25.8087 25.4544C25.8095 25.335 25.8459 25.2201 25.9111 25.1311L26.0838 24.9326C26.117 24.8917 26.1568 24.8595 26.2007 24.838C26.2445 24.8166 26.2915 24.8063 26.3387 24.8078C26.3845 24.8057 26.4302 24.8158 26.4724 24.8373C26.5147 24.8589 26.5527 24.8914 26.5836 24.9326L26.7463 25.1311C26.7832 25.1718 26.8124 25.2218 26.8318 25.2776C26.8512 25.3334 26.8604 25.3938 26.8587 25.4544C26.859 25.5112 26.8491 25.5674 26.8296 25.619C26.8102 25.6706 26.7818 25.7164 26.7463 25.7532L26.5836 25.9516C26.5544 25.9961 26.517 26.0317 26.4745 26.0555C26.432 26.0793 26.3855 26.0907 26.3387 26.0887C26.2908 26.0883 26.2435 26.0759 26.1997 26.0523C26.1558 26.0287 26.1164 25.9944 26.0838 25.9516L25.9111 25.7532C25.8487 25.6718 25.8124 25.5657 25.8087 25.4544ZM32.3609 25.6406C32.3294 25.6808 32.2913 25.7127 32.2492 25.7342C32.207 25.7557 32.1617 25.7663 32.116 25.7654H27.8164C27.7701 25.7659 27.7242 25.7551 27.6814 25.7337C27.6385 25.7122 27.5996 25.6806 27.5669 25.6406C27.5322 25.6011 27.5047 25.553 27.4863 25.4996C27.4678 25.4462 27.4589 25.3886 27.46 25.3306V25.0441C27.4596 24.9881 27.4688 24.9326 27.4873 24.8813C27.5057 24.83 27.5329 24.784 27.5669 24.7465C27.5996 24.7065 27.6385 24.6748 27.6814 24.6534C27.7242 24.6319 27.7701 24.6211 27.8164 24.6216H32.116C32.2077 24.6222 32.2956 24.6669 32.3604 24.746C32.4253 24.8251 32.4619 24.9322 32.4624 25.0441V25.3306C32.4638 25.3882 32.4555 25.4455 32.4381 25.499C32.4206 25.5525 32.3944 25.601 32.3609 25.6417V25.6406ZM31.6628 29.265C31.6289 29.3041 31.6019 29.3513 31.5835 29.4036C31.5651 29.456 31.5557 29.5124 31.5559 29.5693V32.5538C31.555 32.6127 31.564 32.6712 31.5824 32.7256C31.6008 32.7801 31.6281 32.8294 31.6628 32.8704C31.6948 32.9119 31.7335 32.945 31.7764 32.9676C31.8193 32.9903 31.8655 33.0019 31.9122 33.002H32.116C32.1616 33.0011 32.2069 33.0117 32.249 33.033C32.2911 33.0543 32.3292 33.0858 32.3609 33.1257C32.3944 33.1664 32.4206 33.2149 32.4381 33.2684C32.4555 33.3219 32.4638 33.3792 32.4624 33.4368V33.7099C32.4627 33.7663 32.454 33.8222 32.4365 33.8744C32.4191 33.9266 32.3934 33.9742 32.3609 34.0142C32.33 34.0558 32.2922 34.089 32.2499 34.1115C32.2077 34.1339 32.1621 34.1453 32.116 34.1447H31.7185C31.6065 34.142 31.4959 34.1124 31.3932 34.0577C31.2911 34.0113 31.2 33.9347 31.1282 33.8348L30.8632 33.536C30.7883 33.4315 30.7295 33.3114 30.6895 33.1815C30.6457 33.0577 30.6216 32.9249 30.6182 32.7901V29.5693C30.6159 29.4549 30.5776 29.3459 30.5113 29.265C30.445 29.1841 30.3556 29.1374 30.2619 29.1345H29.6706C29.623 29.1332 29.5757 29.1441 29.5317 29.1666C29.4878 29.1891 29.4482 29.2226 29.4156 29.265C29.3831 29.305 29.3574 29.3526 29.34 29.4048C29.3226 29.457 29.3138 29.5129 29.3142 29.5693V32.789C29.3058 33.0668 29.2156 33.3316 29.0602 33.5349L28.8162 33.8336C28.7416 33.9349 28.6473 34.0116 28.542 34.0566C28.4373 34.111 28.325 34.1405 28.2112 34.1436H27.8137C27.7199 34.1407 27.6306 34.094 27.5642 34.0131C27.4979 33.9322 27.4596 33.8232 27.4573 33.7088V33.4356C27.456 33.3775 27.4649 33.3197 27.4833 33.2661C27.5018 33.2125 27.5293 33.1642 27.5642 33.1246C27.597 33.0849 27.636 33.0536 27.6788 33.0324C27.7216 33.0111 27.7675 33.0004 27.8137 33.0008H28.0175C28.0634 33.0012 28.109 32.9897 28.151 32.967C28.1931 32.9443 28.2307 32.911 28.2615 32.8693C28.295 32.8275 28.3213 32.778 28.3389 32.7236C28.3564 32.6692 28.3649 32.6111 28.3638 32.5527V29.5693C28.3642 29.5128 28.3553 29.4568 28.3378 29.4046C28.3202 29.3523 28.2942 29.3048 28.2615 29.265C28.2307 29.2234 28.193 29.1903 28.1509 29.1678C28.1089 29.1453 28.0634 29.134 28.0175 29.1345H27.8137C27.7197 29.1317 27.6303 29.0848 27.5639 29.0036C27.4976 28.9225 27.4594 28.8132 27.4573 28.6986V28.4288C27.4562 28.3707 27.4651 28.313 27.4836 28.2594C27.502 28.2058 27.5295 28.1576 27.5642 28.1178C27.597 28.0781 27.636 28.0468 27.6788 28.0255C27.7216 28.0043 27.7675 27.9936 27.8137 27.994H32.1133C32.1589 27.9932 32.2041 28.0038 32.2462 28.025C32.2883 28.0463 32.3264 28.0779 32.3582 28.1178C32.3915 28.1586 32.4176 28.2072 32.435 28.2606C32.4525 28.3141 32.4608 28.3713 32.4596 28.4288V28.702C32.4601 28.7585 32.4513 28.8146 32.4339 28.8671C32.4165 28.9195 32.3908 28.9672 32.3582 29.0074C32.3272 29.049 32.2894 29.0822 32.2472 29.1046C32.205 29.1271 32.1594 29.1385 32.1133 29.1379H31.9095C31.8635 29.1377 31.8179 29.1489 31.7755 29.1707C31.7331 29.1925 31.6948 29.2246 31.6628 29.265Z" fill="white"/>
<path d="M31.7249 11.4964C31.6896 11.4604 31.6614 11.4152 31.6424 11.364C31.6234 11.3129 31.6141 11.2571 31.6153 11.201C31.615 11.1458 31.6056 11.0912 31.5875 11.0406C31.5695 10.99 31.5432 10.9445 31.5102 10.9067C31.4758 10.8645 31.4348 10.8313 31.3895 10.8093C31.3442 10.7872 31.2957 10.7767 31.247 10.7784H26.9364C26.8877 10.7767 26.8392 10.7872 26.7939 10.8093C26.7487 10.8313 26.7076 10.8645 26.6732 10.9067C26.6403 10.9445 26.614 10.99 26.5959 11.0406C26.5778 11.0912 26.5684 11.1458 26.5681 11.201C26.5695 11.2566 26.5608 11.312 26.5427 11.363C26.5245 11.4141 26.4973 11.4596 26.463 11.4964C26.3904 11.5729 26.2966 11.6128 26.2008 11.6079H25.9531C25.8583 11.6076 25.7675 11.5616 25.7004 11.48C25.6333 11.3983 25.5954 11.2876 25.5949 11.172V10.0471C25.5951 9.92764 25.6327 9.81277 25.7 9.72602C25.7315 9.682 25.7704 9.64684 25.8141 9.62297C25.8578 9.59911 25.9052 9.5871 25.9531 9.58778H32.2294C32.2785 9.5863 32.3273 9.59744 32.3727 9.62049C32.418 9.64354 32.4589 9.67798 32.4926 9.72156C32.5616 9.80966 32.5994 9.92745 32.5977 10.0493V11.1776C32.5983 11.2349 32.5893 11.2917 32.5712 11.3447C32.5531 11.3976 32.5264 11.4454 32.4926 11.4853C32.4582 11.5275 32.4171 11.5606 32.3719 11.5826C32.3266 11.6047 32.2781 11.6152 32.2294 11.6135H31.9936C31.8953 11.616 31.7997 11.5744 31.7249 11.4964ZM27.4984 18.9938C27.3763 19.0296 27.2512 19.0487 27.1256 19.0507H25.9531C25.9056 19.0513 25.8585 19.0398 25.8149 19.0167C25.7712 18.9937 25.7321 18.9596 25.7 18.9169C25.6323 18.8331 25.5946 18.7201 25.5949 18.6025V18.3071C25.5937 18.2477 25.6024 18.1886 25.6205 18.1334C25.6385 18.0782 25.6656 18.028 25.7 17.986C25.7329 17.9448 25.7723 17.9122 25.8158 17.8902C25.8593 17.8682 25.906 17.8571 25.9531 17.8578H26.6467C26.7697 17.8558 26.8922 17.8387 27.0123 17.8065C27.128 17.7814 27.2396 17.734 27.3431 17.666L27.598 17.5032C27.6894 17.452 27.7342 17.3918 27.7342 17.3238C27.7312 17.2748 27.7168 17.2279 27.6927 17.1886C27.6685 17.1493 27.6357 17.1192 27.598 17.1019L26.4831 16.4085C26.3863 16.3422 26.3063 16.2446 26.2519 16.1264C26.1943 16.0151 26.1627 15.8868 26.1606 15.7552V14.9748C26.164 14.8599 26.136 14.747 26.0811 14.6537C26.0597 14.6145 26.0308 14.5824 25.9968 14.56C25.9629 14.5376 25.925 14.5258 25.8864 14.5255C25.8475 14.5246 25.8095 14.5112 25.7762 14.4865C25.743 14.4618 25.7157 14.4268 25.6972 14.385C25.6473 14.2842 25.622 14.1682 25.6241 14.0505V13.7685C25.6203 13.6568 25.6459 13.5466 25.6972 13.4541C25.7182 13.4165 25.7464 13.3857 25.7794 13.3645C25.8124 13.3434 25.8491 13.3324 25.8864 13.3326C25.926 13.3317 25.9648 13.3183 25.9989 13.2936C26.033 13.269 26.0613 13.234 26.0811 13.1921C26.133 13.1016 26.1608 12.9938 26.1606 12.8833V12.8209C26.1604 12.7621 26.1701 12.704 26.1889 12.6499C26.2078 12.5959 26.2355 12.5471 26.2702 12.5065C26.3051 12.4628 26.3469 12.4283 26.3931 12.4051C26.4393 12.3819 26.4889 12.3705 26.5389 12.3716H26.7701C26.8175 12.3713 26.8645 12.3831 26.9079 12.4064C26.9514 12.4296 26.9904 12.4637 27.0223 12.5065C27.09 12.5903 27.1277 12.7033 27.1274 12.8209V12.8844C27.1285 12.9428 27.1394 13.0003 27.1593 13.0534C27.1793 13.1065 27.2079 13.1541 27.2435 13.1932C27.2772 13.237 27.3178 13.272 27.3629 13.2961C27.4079 13.3202 27.4565 13.333 27.5057 13.3337H30.6137C30.6639 13.3346 30.7138 13.3226 30.7599 13.2984C30.806 13.2742 30.8475 13.2383 30.8815 13.1932C30.9157 13.1532 30.943 13.1053 30.962 13.0523C30.981 12.9993 30.9912 12.9422 30.992 12.8844V12.7952C30.99 12.7377 30.9983 12.6803 31.0165 12.6271C31.0346 12.5739 31.0622 12.5262 31.0971 12.4875C31.1701 12.4111 31.2642 12.3712 31.3603 12.376H31.5915C31.6884 12.3757 31.7819 12.4194 31.8538 12.4987C31.8905 12.5349 31.9201 12.5808 31.9402 12.6329C31.9603 12.685 31.9704 12.7421 31.9699 12.7997V12.8889C31.9704 13.0015 32.0027 13.1106 32.0612 13.1977C32.0852 13.2406 32.1174 13.2757 32.1549 13.3002C32.1925 13.3247 32.2343 13.3377 32.2769 13.3381C32.32 13.3374 32.3627 13.3485 32.4018 13.3707C32.4409 13.3929 32.4754 13.4256 32.5026 13.4664C32.5629 13.5519 32.5954 13.6613 32.594 13.7741V14.0472C32.5967 14.1683 32.5644 14.2868 32.5026 14.3817C32.4776 14.4246 32.4446 14.4597 32.4063 14.4841C32.368 14.5085 32.3256 14.5215 32.2824 14.5221C32.2399 14.5211 32.1978 14.5322 32.1594 14.5544C32.121 14.5767 32.0874 14.6095 32.0612 14.6503C32.0033 14.7421 31.9735 14.8557 31.9772 14.9714V15.7518C31.9734 15.8846 31.9388 16.0133 31.8776 16.1231C31.82 16.2405 31.7384 16.3377 31.6409 16.4051L30.558 17.0852C30.4739 17.1454 30.4319 17.2134 30.4319 17.2903C30.4319 17.3672 30.4766 17.4364 30.568 17.4954L30.8522 17.6627C30.9557 17.7307 31.0673 17.7781 31.183 17.8031C31.3031 17.8353 31.4256 17.8525 31.5486 17.8544H32.2321C32.2804 17.8534 32.3283 17.8642 32.373 17.8862C32.4178 17.9083 32.4584 17.9411 32.4925 17.9827C32.5266 18.0243 32.5535 18.0739 32.5716 18.1285C32.5897 18.1831 32.5985 18.2415 32.5977 18.3004V18.5958C32.598 18.7134 32.5602 18.8264 32.4926 18.9102C32.4589 18.9538 32.418 18.9882 32.3727 19.0113C32.3273 19.0343 32.2785 19.0455 32.2294 19.044H31.0469C30.9264 19.0416 30.8065 19.0225 30.6896 18.9871C30.5743 18.9571 30.4642 18.9027 30.3642 18.8266L29.4074 18.2491C29.3046 18.1795 29.1887 18.1442 29.0711 18.1465C28.9602 18.1463 28.8512 18.1817 28.755 18.2491L27.8302 18.8266C27.7286 18.9058 27.6162 18.9624 27.4984 18.9938ZM29.0711 16.511C29.1865 16.5151 29.3012 16.4889 29.4074 16.4341L30.6475 15.7039C30.7477 15.6329 30.8325 15.5339 30.8952 15.4151C30.9571 15.3078 30.9917 15.1806 30.9948 15.0495V14.9725C30.996 14.9125 30.9868 14.8529 30.9677 14.7975C30.9487 14.7422 30.9202 14.6924 30.8842 14.6514C30.8487 14.6097 30.8067 14.5768 30.7608 14.5548C30.7148 14.5328 30.6658 14.5221 30.6165 14.5232H27.5067C27.4573 14.5221 27.4083 14.5328 27.3623 14.5548C27.3164 14.5768 27.2744 14.6097 27.2389 14.6514C27.2029 14.6924 27.1745 14.7422 27.1554 14.7975C27.1363 14.8529 27.1271 14.9125 27.1283 14.9725V15.0506C27.1314 15.1817 27.166 15.3089 27.2279 15.4162C27.2906 15.5351 27.3755 15.634 27.4756 15.705L28.7367 16.4352C28.8432 16.4862 28.9567 16.512 29.0711 16.511Z" fill="white"/>
<path d="M35.5795 44H3.42051C2.51363 43.9988 1.64417 43.5588 1.00291 42.7765C0.361652 41.9942 0.000967595 40.9335 0 39.8271L0 4.1729C0.000967595 3.06654 0.361652 2.00583 1.00291 1.22352C1.64417 0.441203 2.51363 0.00118043 3.42051 0L35.5795 0C36.4864 0.00118043 37.3558 0.441203 37.9971 1.22352C38.6383 2.00583 38.999 3.06654 39 4.1729V39.8271C38.999 40.9335 38.6383 41.9942 37.9971 42.7765C37.3558 43.5588 36.4864 43.9988 35.5795 44ZM3.42051 2.13495C2.97761 2.13554 2.55299 2.35044 2.23982 2.7325C1.92664 3.11457 1.75049 3.63259 1.75001 4.1729V39.8271C1.75049 40.3674 1.92664 40.8854 2.23982 41.2675C2.55299 41.6496 2.97761 41.8645 3.42051 41.865H35.5795C36.0224 41.8645 36.447 41.6496 36.7602 41.2675C37.0734 40.8854 37.2495 40.3674 37.25 39.8271V4.1729C37.2495 3.63259 37.0734 3.11457 36.7602 2.7325C36.447 2.35044 36.0224 2.13554 35.5795 2.13495H3.42051Z" fill="white"/>
<path d="M28.0549 8.09945L29.687 8.93893C29.7702 8.98264 29.864 8.98573 29.949 8.94756C30.0341 8.90939 30.1038 8.83288 30.144 8.7338C30.1906 8.62231 30.2353 8.50414 30.2801 8.38708C30.2976 8.34081 30.3072 8.29072 30.3085 8.2398C30.3097 8.18888 30.3025 8.13818 30.2873 8.09073C30.2721 8.04328 30.2493 8.00005 30.2201 7.96362C30.1909 7.92719 30.156 7.89831 30.1175 7.87871L28.4269 7.01246C28.3392 6.96768 28.2406 6.96719 28.1527 7.01109C28.0648 7.055 27.9948 7.1397 27.9581 7.24658L27.8603 7.52976C27.8243 7.63681 27.8246 7.75689 27.8611 7.86369C27.8976 7.97048 27.9673 8.05526 28.0549 8.09945Z" fill="white"/>
</svg>
